<svg width="125" height="126" viewBox="0 0 125 126" fill="none" xmlns="http://www.w3.org/2000/svg">
<path d="M124.329 50.4329C123.312 46.1736 121.094 42.1921 118.044 39.2292C114.717 35.9884 110.65 34.044 106.214 33.6736C105.567 33.581 104.921 33.581 104.274 33.581C97.527 33.581 91.0576 36.544 84.311 42.7477C82.5551 44.4144 80.8915 46.2662 79.228 48.0255C75.8084 51.8218 72.5737 55.4329 68.5072 57.0069C68.4148 57.0069 68.4148 57.0069 68.4148 57.0069C68.4148 57.0069 68.3224 57.0069 68.3224 56.9143C68.3224 56.8218 68.3224 56.8218 68.3224 56.8218C69.8011 52.7477 73.4054 49.507 77.2871 46.081C79.1354 44.507 80.9839 42.8403 82.555 40.9884C89.3016 33.6736 92.259 26.4514 91.6121 19.1366C91.2424 14.6921 89.3016 10.618 86.0669 7.28472C83.1095 4.22916 79.1355 2.00695 74.8842 0.98843C73.1282 0.525467 71.4647 0.340271 69.7087 0.340271C67.2134 0.340271 64.718 0.803234 62.5 1.72916C60.2819 0.803234 57.8791 0.340271 55.2913 0.340271C53.5354 0.340271 51.8718 0.525467 50.1159 0.98843C45.8646 2.00695 41.8905 4.22916 38.9331 7.28472C35.6984 10.618 33.7576 14.6921 33.3879 19.1366C32.741 26.544 35.6984 33.6736 42.445 40.9884C44.1086 42.7477 45.9569 44.4144 47.7129 46.081C51.5021 49.507 55.1065 52.7477 56.6776 56.8218C56.6776 56.9143 56.6776 56.9143 56.6776 56.9143C56.6776 57.0069 56.5852 57.0069 56.5852 57.0069C56.5852 57.0069 56.5851 57.0069 56.4927 57.0069C52.4263 55.5255 49.1916 51.9143 45.7721 48.0255C44.201 46.1736 42.5374 44.3218 40.689 42.7477C34.0348 36.544 27.4731 33.581 20.7265 33.581C20.0795 33.581 19.4326 33.581 18.7857 33.6736C14.3496 34.044 10.2831 35.9884 6.95596 39.2292C3.90613 42.1921 1.68807 46.1736 0.67146 50.4329C-0.437572 54.7847 -0.160326 59.1366 1.4108 62.8403C-0.160326 66.544 -0.437572 70.8959 0.67146 75.2477C1.68807 79.507 3.90613 83.4884 6.95596 86.4514C10.2831 89.6921 14.3496 91.6366 18.7857 92.0069C19.4326 92.0995 20.0795 92.0995 20.7265 92.0995C27.4731 92.0995 33.9424 89.1366 40.689 82.9329C42.445 81.2662 44.1085 79.4143 45.7721 77.6551C49.1916 73.8588 52.4263 70.2477 56.4927 68.6736C56.5851 68.6736 56.5852 68.6736 56.5852 68.6736C56.5852 68.6736 56.6776 68.6736 56.6776 68.7662C56.6776 68.8588 56.6776 68.8588 56.6776 68.8588C55.1989 72.9329 51.5945 76.1736 47.7129 79.5995C45.8645 81.1736 44.0161 82.8403 42.445 84.6921C35.6984 92.0069 32.741 99.2292 33.3879 106.544C33.7576 110.988 35.6984 115.062 38.9331 118.396C41.8905 121.451 45.8646 123.674 50.1159 124.692C51.8718 125.155 53.5354 125.34 55.2913 125.34C57.7866 125.34 60.2819 124.877 62.5 123.951C64.718 124.877 67.121 125.34 69.7087 125.34C71.4647 125.34 73.1282 125.155 74.8842 124.692C79.1355 123.674 83.1095 121.451 86.0669 118.396C89.3016 115.062 91.2424 110.988 91.6121 106.544C92.259 99.1366 89.3016 92.0069 82.555 84.6921C80.8915 82.9329 79.043 81.2662 77.2871 79.5995C73.4979 76.1736 69.8936 72.9329 68.3224 68.8588C68.3224 68.7662 68.3224 68.7662 68.3224 68.7662C68.3224 68.6736 68.4148 68.6736 68.4148 68.6736C68.4148 68.6736 68.4148 68.6736 68.5072 68.6736C72.5737 70.1551 75.8084 73.7662 79.228 77.6551C80.7991 79.5069 82.4626 81.3588 84.311 82.9329C90.9652 89.1366 97.527 92.0995 104.274 92.0995C104.921 92.0995 105.567 92.0995 106.214 92.0069C110.65 91.6366 114.717 89.6921 118.044 86.4514C121.094 83.4884 123.312 79.507 124.329 75.2477C125.438 70.8959 125.16 66.544 123.589 62.8403C125.068 59.1366 125.345 54.7847 124.329 50.4329Z" fill="#0F0F0F"/>
</svg>
